<svg xmlns="http://www.w3.org/2000/svg" viewBox="0 0 1600 900" role="img">
<g id="p">
  <rect width="1600" height="900" fill="#090B0D"/>
  <path d="M 40 66 V 40 H 66" fill="none" stroke="#232A33" stroke-width="3"/>
  <path d="M 1534 40 H 1560 V 66" fill="none" stroke="#232A33" stroke-width="3"/>
  <path d="M 1560 834 V 860 H 1534" fill="none" stroke="#232A33" stroke-width="3"/>
  <path d="M 66 860 H 40 V 834" fill="none" stroke="#232A33" stroke-width="3"/>
  <text x="80" y="78" font-family="JetBrains Mono, ui-monospace, monospace" font-size="24" fill="#5A6472" text-anchor="start">CANVAS GAME · ZERO DEPS</text>
  <rect x="80" y="390" width="280" height="140" rx="10" fill="#10141B" stroke="#3FA9C9" stroke-width="3"/>
  <text x="102" y="434" font-family="JetBrains Mono, ui-monospace, monospace" font-size="24" fill="#3FA9C9">INPUT</text>
  <text x="102" y="468" font-family="JetBrains Mono, ui-monospace, monospace" font-size="24" fill="#8B95A3">controls</text>
  <rect x="500" y="370" width="320" height="180" rx="10" fill="#10141B" stroke="#3FA9C9" stroke-width="3"/>
  <text x="522" y="414" font-family="JetBrains Mono, ui-monospace, monospace" font-size="24" fill="#3FA9C9">GAME LOOP</text>
  <text x="522" y="448" font-family="JetBrains Mono, ui-monospace, monospace" font-size="24" fill="#8B95A3">0 deps</text>
  <rect x="960" y="220" width="480" height="460" rx="10" fill="#10141B" stroke="#3FA9C9" stroke-width="3"/>
  <text x="982" y="264" font-family="JetBrains Mono, ui-monospace, monospace" font-size="24" fill="#3FA9C9">CANVAS</text>
  <text x="982" y="298" font-family="JetBrains Mono, ui-monospace, monospace" font-size="24" fill="#8B95A3">HTML5</text>
  <rect x="1060" y="330" width="44" height="44" fill="none" stroke="#3FA9C9" stroke-width="3"/>
  <rect x="1220" y="290" width="44" height="44" fill="none" stroke="#3FA9C9" stroke-width="3"/>
  <rect x="1330" y="400" width="44" height="44" fill="none" stroke="#3FA9C9" stroke-width="3"/>
  <path d="M 1082 390 V 500 M 1242 350 V 500 M 1352 460 V 520" fill="none" stroke="#232A33" stroke-width="3" stroke-dasharray="8 10"/>
  <path d="M 1130 600 h 140 v -40" fill="none" stroke="#3FA9C9" stroke-width="3"/>
  <path d="M 1130 600 v -40" fill="none" stroke="#3FA9C9" stroke-width="3"/>
  <path d="M 360 460 L 482 460" fill="none" stroke="#3FA9C9" stroke-width="3" pathLength="1" stroke-dasharray="1" style="stroke-dashoffset: var(--po, 0)"/>
  <path d="M 494 460 l -18 -10 v 20 z" fill="#3FA9C9"/>
  <path d="M 820 460 L 942 460" fill="none" stroke="#3FA9C9" stroke-width="3" pathLength="1" stroke-dasharray="1" style="stroke-dashoffset: var(--po, 0)"/>
  <path d="M 954 460 l -18 -10 v 20 z" fill="#3FA9C9"/>
</g>
</svg>
