<svg xmlns="http://www.w3.org/2000/svg" viewBox="0 0 1600 900" role="img">
<g id="p">
  <rect width="1600" height="900" fill="#090B0D"/>
  <path d="M 40 66 V 40 H 66" fill="none" stroke="#232A33" stroke-width="3"/>
  <path d="M 1534 40 H 1560 V 66" fill="none" stroke="#232A33" stroke-width="3"/>
  <path d="M 1560 834 V 860 H 1534" fill="none" stroke="#232A33" stroke-width="3"/>
  <path d="M 66 860 H 40 V 834" fill="none" stroke="#232A33" stroke-width="3"/>
  <text x="80" y="78" font-family="JetBrains Mono, ui-monospace, monospace" font-size="24" fill="#5A6472" text-anchor="start">DASHBOARD VIEWER · SINGLE PAGE</text>
  <rect x="80" y="390" width="280" height="140" rx="10" fill="#10141B" stroke="#3FA9C9" stroke-width="3"/>
  <text x="102" y="434" font-family="JetBrains Mono, ui-monospace, monospace" font-size="24" fill="#3FA9C9">DATA</text>
  <text x="102" y="468" font-family="JetBrains Mono, ui-monospace, monospace" font-size="24" fill="#8B95A3">metrics</text>
  <rect x="560" y="300" width="400" height="320" rx="10" fill="#10141B" stroke="#3FA9C9" stroke-width="3"/>
  <text x="582" y="344" font-family="JetBrains Mono, ui-monospace, monospace" font-size="24" fill="#3FA9C9">VIEWER</text>
  <text x="582" y="378" font-family="JetBrains Mono, ui-monospace, monospace" font-size="24" fill="#8B95A3">single page</text>
  <rect x="600" y="380" width="150" height="90" rx="6" fill="none" stroke="#232A33" stroke-width="3"/>
  <rect x="770" y="380" width="150" height="90" rx="6" fill="none" stroke="#232A33" stroke-width="3"/>
  <rect x="600" y="490" width="150" height="90" rx="6" fill="none" stroke="#232A33" stroke-width="3"/>
  <rect x="770" y="490" width="150" height="90" rx="6" fill="none" stroke="#232A33" stroke-width="3"/>
  <rect x="1200" y="400" width="320" height="120" rx="10" fill="#10141B" stroke="#3FA9C9" stroke-width="3"/>
  <text x="1222" y="444" font-family="JetBrains Mono, ui-monospace, monospace" font-size="24" fill="#3FA9C9">SHARE VIEW</text>
  <text x="1222" y="478" font-family="JetBrains Mono, ui-monospace, monospace" font-size="24" fill="#8B95A3">browser</text>
  <path d="M 360 460 L 542 460" fill="none" stroke="#3FA9C9" stroke-width="3" pathLength="1" stroke-dasharray="1" style="stroke-dashoffset: var(--po, 0)"/>
  <path d="M 554 460 l -18 -10 v 20 z" fill="#3FA9C9"/>
  <path d="M 960 460 L 1182 460" fill="none" stroke="#3FA9C9" stroke-width="3" pathLength="1" stroke-dasharray="1" style="stroke-dashoffset: var(--po, 0)"/>
  <path d="M 1194 460 l -18 -10 v 20 z" fill="#3FA9C9"/>
</g>
</svg>
