<svg xmlns="http://www.w3.org/2000/svg" viewBox="0 0 1600 900" role="img">
<g id="p">
  <rect width="1600" height="900" fill="#090B0D"/>
  <path d="M 40 66 V 40 H 66" fill="none" stroke="#232A33" stroke-width="3"/>
  <path d="M 1534 40 H 1560 V 66" fill="none" stroke="#232A33" stroke-width="3"/>
  <path d="M 1560 834 V 860 H 1534" fill="none" stroke="#232A33" stroke-width="3"/>
  <path d="M 66 860 H 40 V 834" fill="none" stroke="#232A33" stroke-width="3"/>
  <text x="80" y="78" font-family="JetBrains Mono, ui-monospace, monospace" font-size="24" fill="#5A6472" text-anchor="start">OMEGA AI · DEEPSEEK-R1</text>
  <rect x="80" y="400" width="300" height="180" rx="10" fill="#10141B" stroke="#3FA9C9" stroke-width="3"/>
  <text x="102" y="444" font-family="JetBrains Mono, ui-monospace, monospace" font-size="24" fill="#3FA9C9">WEB UI</text>
  <text x="102" y="478" font-family="JetBrains Mono, ui-monospace, monospace" font-size="24" fill="#8B95A3">HTML · JS</text>
  <rect x="600" y="140" width="300" height="120" rx="10" fill="#10141B" stroke="#3FA9C9" stroke-width="3"/>
  <text x="622" y="184" font-family="JetBrains Mono, ui-monospace, monospace" font-size="24" fill="#3FA9C9">PREFS</text>
  <text x="622" y="218" font-family="JetBrains Mono, ui-monospace, monospace" font-size="24" fill="#8B95A3">personalized</text>
  <rect x="580" y="400" width="360" height="200" rx="10" fill="#10141B" stroke="#3FA9C9" stroke-width="3"/>
  <text x="602" y="444" font-family="JetBrains Mono, ui-monospace, monospace" font-size="24" fill="#3FA9C9">DEEPSEEK-R1</text>
  <text x="602" y="478" font-family="JetBrains Mono, ui-monospace, monospace" font-size="24" fill="#8B95A3">reasoning LLM</text>
  <rect x="1180" y="430" width="340" height="140" rx="10" fill="#10141B" stroke="#3FA9C9" stroke-width="3"/>
  <text x="1202" y="474" font-family="JetBrains Mono, ui-monospace, monospace" font-size="24" fill="#3FA9C9">RESPONSE</text>
  <path d="M 380 490 L 562 490" fill="none" stroke="#3FA9C9" stroke-width="3" pathLength="1" stroke-dasharray="1" style="stroke-dashoffset: var(--po, 0)"/>
  <path d="M 574 490 l -18 -10 v 20 z" fill="#3FA9C9"/>
  <path d="M 750 260 L 750 382" fill="none" stroke="#3FA9C9" stroke-width="3" pathLength="1" stroke-dasharray="1" style="stroke-dashoffset: var(--po, 0)"/>
  <path d="M 750 394 l -10 -18 h 20 z" fill="#3FA9C9"/>
  <path d="M 940 500 L 1162 500" fill="none" stroke="#3FA9C9" stroke-width="3" pathLength="1" stroke-dasharray="1" style="stroke-dashoffset: var(--po, 0)"/>
  <path d="M 1174 500 l -18 -10 v 20 z" fill="#3FA9C9"/>
</g>
</svg>
