<svg xmlns="http://www.w3.org/2000/svg" viewBox="0 0 1600 900" role="img">
<g id="p">
  <rect width="1600" height="900" fill="#090B0D"/>
  <path d="M 40 66 V 40 H 66" fill="none" stroke="#232A33" stroke-width="3"/>
  <path d="M 1534 40 H 1560 V 66" fill="none" stroke="#232A33" stroke-width="3"/>
  <path d="M 1560 834 V 860 H 1534" fill="none" stroke="#232A33" stroke-width="3"/>
  <path d="M 66 860 H 40 V 834" fill="none" stroke="#232A33" stroke-width="3"/>
  <text x="80" y="78" font-family="JetBrains Mono, ui-monospace, monospace" font-size="24" fill="#5A6472" text-anchor="start">PI EDGE · TFLITE · MJPEG STREAM</text>
  <rect x="80" y="380" width="280" height="140" rx="10" fill="#10141B" stroke="#E0B33C" stroke-width="3"/>
  <text x="102" y="424" font-family="JetBrains Mono, ui-monospace, monospace" font-size="24" fill="#E0B33C">CAMERA</text>
  <text x="102" y="458" font-family="JetBrains Mono, ui-monospace, monospace" font-size="24" fill="#8B95A3">live feed</text>
  <rect x="480" y="360" width="340" height="180" rx="10" fill="#10141B" stroke="#E0B33C" stroke-width="3"/>
  <text x="502" y="404" font-family="JetBrains Mono, ui-monospace, monospace" font-size="24" fill="#E0B33C">RASPBERRY PI</text>
  <text x="502" y="438" font-family="JetBrains Mono, ui-monospace, monospace" font-size="24" fill="#8B95A3">TFLite inference</text>
  <rect x="940" y="380" width="260" height="140" rx="10" fill="#10141B" stroke="#E0B33C" stroke-width="3"/>
  <text x="962" y="424" font-family="JetBrains Mono, ui-monospace, monospace" font-size="24" fill="#E0B33C">MJPEG</text>
  <text x="962" y="458" font-family="JetBrains Mono, ui-monospace, monospace" font-size="24" fill="#8B95A3">annotated</text>
  <rect x="1330" y="300" width="210" height="300" rx="10" fill="#10141B" stroke="#E0B33C" stroke-width="3"/>
  <text x="1352" y="344" font-family="JetBrains Mono, ui-monospace, monospace" font-size="24" fill="#E0B33C">DASHBOARD</text>
  <text x="1352" y="378" font-family="JetBrains Mono, ui-monospace, monospace" font-size="24" fill="#8B95A3">phone UI</text>
  <rect x="1358" y="400" width="154" height="170" rx="6" fill="none" stroke="#232A33" stroke-width="3"/>
  <text x="940" y="620" font-family="JetBrains Mono, ui-monospace, monospace" font-size="24" fill="#8B95A3" text-anchor="start">FPS · LATENCY · PREDICTION</text>
  <path d="M 360 450 L 462 450" fill="none" stroke="#E0B33C" stroke-width="3" pathLength="1" stroke-dasharray="1" style="stroke-dashoffset: var(--po, 0)"/>
  <path d="M 474 450 l -18 -10 v 20 z" fill="#E0B33C"/>
  <path d="M 820 450 L 922 450" fill="none" stroke="#E0B33C" stroke-width="3" pathLength="1" stroke-dasharray="1" style="stroke-dashoffset: var(--po, 0)"/>
  <path d="M 934 450 l -18 -10 v 20 z" fill="#E0B33C"/>
  <path d="M 1200 450 L 1312 450" fill="none" stroke="#E0B33C" stroke-width="3" pathLength="1" stroke-dasharray="1" style="stroke-dashoffset: var(--po, 0)"/>
  <path d="M 1324 450 l -18 -10 v 20 z" fill="#E0B33C"/>
</g>
</svg>
