<svg xmlns="http://www.w3.org/2000/svg" viewBox="0 0 1600 900" role="img">
<g id="p">
  <rect width="1600" height="900" fill="#090B0D"/>
  <path d="M 40 66 V 40 H 66" fill="none" stroke="#232A33" stroke-width="3"/>
  <path d="M 1534 40 H 1560 V 66" fill="none" stroke="#232A33" stroke-width="3"/>
  <path d="M 1560 834 V 860 H 1534" fill="none" stroke="#232A33" stroke-width="3"/>
  <path d="M 66 860 H 40 V 834" fill="none" stroke="#232A33" stroke-width="3"/>
  <text x="80" y="78" font-family="JetBrains Mono, ui-monospace, monospace" font-size="24" fill="#5A6472" text-anchor="start">POKEMON EDA · KAGGLE GEN 1-6</text>
  <rect x="80" y="380" width="320" height="140" rx="10" fill="#10141B" stroke="#A97BFF" stroke-width="3"/>
  <text x="102" y="424" font-family="JetBrains Mono, ui-monospace, monospace" font-size="24" fill="#A97BFF">KAGGLE SET</text>
  <text x="102" y="458" font-family="JetBrains Mono, ui-monospace, monospace" font-size="24" fill="#8B95A3">gen 1-6</text>
  <rect x="540" y="380" width="280" height="140" rx="10" fill="#10141B" stroke="#A97BFF" stroke-width="3"/>
  <text x="562" y="424" font-family="JetBrains Mono, ui-monospace, monospace" font-size="24" fill="#A97BFF">PANDAS</text>
  <text x="562" y="458" font-family="JetBrains Mono, ui-monospace, monospace" font-size="24" fill="#8B95A3">Colab</text>
  <path d="M 1000 240 V 700 H 1520" fill="none" stroke="#232A33" stroke-width="3"/>
  <circle cx="1060" cy="600" r="9" fill="#A97BFF" fill-opacity="0.5" stroke="#A97BFF" stroke-width="3"/>
  <circle cx="1120" cy="520" r="9" fill="#A97BFF" fill-opacity="0.5" stroke="#A97BFF" stroke-width="3"/>
  <circle cx="1180" cy="560" r="9" fill="#A97BFF" fill-opacity="0.5" stroke="#A97BFF" stroke-width="3"/>
  <circle cx="1240" cy="430" r="9" fill="#A97BFF" fill-opacity="0.5" stroke="#A97BFF" stroke-width="3"/>
  <circle cx="1300" cy="470" r="9" fill="#A97BFF" fill-opacity="0.5" stroke="#A97BFF" stroke-width="3"/>
  <circle cx="1360" cy="360" r="9" fill="#A97BFF" fill-opacity="0.5" stroke="#A97BFF" stroke-width="3"/>
  <circle cx="1420" cy="400" r="9" fill="#A97BFF" fill-opacity="0.5" stroke="#A97BFF" stroke-width="3"/>
  <circle cx="1470" cy="300" r="9" fill="#A97BFF" fill-opacity="0.5" stroke="#A97BFF" stroke-width="3"/>
  <text x="1000" y="760" font-family="JetBrains Mono, ui-monospace, monospace" font-size="24" fill="#8B95A3" text-anchor="start">STATS · TYPES · GENERATIONS</text>
  <path d="M 400 450 L 522 450" fill="none" stroke="#A97BFF" stroke-width="3" pathLength="1" stroke-dasharray="1" style="stroke-dashoffset: var(--po, 0)"/>
  <path d="M 534 450 l -18 -10 v 20 z" fill="#A97BFF"/>
  <path d="M 820 450 L 922 450" fill="none" stroke="#A97BFF" stroke-width="3" pathLength="1" stroke-dasharray="1" style="stroke-dashoffset: var(--po, 0)"/>
  <path d="M 934 450 l -18 -10 v 20 z" fill="#A97BFF"/>
</g>
</svg>
