<svg xmlns="http://www.w3.org/2000/svg" viewBox="0 0 1600 900" role="img">
<g id="p">
  <rect width="1600" height="900" fill="#090B0D"/>
  <path d="M 40 66 V 40 H 66" fill="none" stroke="#232A33" stroke-width="3"/>
  <path d="M 1534 40 H 1560 V 66" fill="none" stroke="#232A33" stroke-width="3"/>
  <path d="M 1560 834 V 860 H 1534" fill="none" stroke="#232A33" stroke-width="3"/>
  <path d="M 66 860 H 40 V 834" fill="none" stroke="#232A33" stroke-width="3"/>
  <text x="80" y="78" font-family="JetBrains Mono, ui-monospace, monospace" font-size="24" fill="#5A6472" text-anchor="start">WASTE CLF · MOBILENETV3-S + CBAM · INT8</text>
  <rect x="80" y="390" width="280" height="140" rx="10" fill="#10141B" stroke="#35B37E" stroke-width="3"/>
  <text x="102" y="434" font-family="JetBrains Mono, ui-monospace, monospace" font-size="24" fill="#35B37E">INPUT</text>
  <text x="102" y="468" font-family="JetBrains Mono, ui-monospace, monospace" font-size="24" fill="#8B95A3">waste image</text>
  <rect x="500" y="130" width="280" height="120" rx="10" fill="#10141B" stroke="#35B37E" stroke-width="3"/>
  <text x="522" y="174" font-family="JetBrains Mono, ui-monospace, monospace" font-size="24" fill="#35B37E">CBAM</text>
  <text x="522" y="208" font-family="JetBrains Mono, ui-monospace, monospace" font-size="24" fill="#8B95A3">attention</text>
  <rect x="460" y="370" width="360" height="180" rx="10" fill="#10141B" stroke="#35B37E" stroke-width="3"/>
  <text x="482" y="414" font-family="JetBrains Mono, ui-monospace, monospace" font-size="24" fill="#35B37E">MOBILENETV3-S</text>
  <text x="482" y="448" font-family="JetBrains Mono, ui-monospace, monospace" font-size="24" fill="#8B95A3">backbone</text>
  <rect x="940" y="390" width="240" height="140" rx="10" fill="#10141B" stroke="#35B37E" stroke-width="3"/>
  <text x="962" y="434" font-family="JetBrains Mono, ui-monospace, monospace" font-size="24" fill="#35B37E">HEAD</text>
  <text x="962" y="468" font-family="JetBrains Mono, ui-monospace, monospace" font-size="24" fill="#8B95A3">6-class</text>
  <rect x="1300" y="220" width="240" height="120" rx="10" fill="#10141B" stroke="#35B37E" stroke-width="3"/>
  <text x="1322" y="264" font-family="JetBrains Mono, ui-monospace, monospace" font-size="24" fill="#35B37E">INT8</text>
  <text x="1322" y="298" font-family="JetBrains Mono, ui-monospace, monospace" font-size="24" fill="#8B95A3">quantized</text>
  <rect x="1300" y="560" width="240" height="120" rx="10" fill="#10141B" stroke="#35B37E" stroke-width="3"/>
  <text x="1322" y="604" font-family="JetBrains Mono, ui-monospace, monospace" font-size="24" fill="#35B37E">ONNX·TFLITE</text>
  <text x="1322" y="638" font-family="JetBrains Mono, ui-monospace, monospace" font-size="24" fill="#8B95A3">edge runtime</text>
  <path d="M 360 460 L 442 460" fill="none" stroke="#35B37E" stroke-width="3" pathLength="1" stroke-dasharray="1" style="stroke-dashoffset: var(--po, 0)"/>
  <path d="M 454 460 l -18 -10 v 20 z" fill="#35B37E"/>
  <path d="M 640 250 L 640 352" fill="none" stroke="#35B37E" stroke-width="3" pathLength="1" stroke-dasharray="1" style="stroke-dashoffset: var(--po, 0)"/>
  <path d="M 640 364 l -10 -18 h 20 z" fill="#35B37E"/>
  <path d="M 820 460 L 922 460" fill="none" stroke="#35B37E" stroke-width="3" pathLength="1" stroke-dasharray="1" style="stroke-dashoffset: var(--po, 0)"/>
  <path d="M 934 460 l -18 -10 v 20 z" fill="#35B37E"/>
  <path d="M 1180 460 L 1240 460 L 1240 280 L 1282 280" fill="none" stroke="#35B37E" stroke-width="3" pathLength="1" stroke-dasharray="1" style="stroke-dashoffset: var(--po, 0)"/>
  <path d="M 1294 280 l -18 -10 v 20 z" fill="#35B37E"/>
  <path d="M 1420 340 L 1420 542" fill="none" stroke="#35B37E" stroke-width="3" pathLength="1" stroke-dasharray="1" style="stroke-dashoffset: var(--po, 0)"/>
  <path d="M 1420 554 l -10 -18 h 20 z" fill="#35B37E"/>
</g>
</svg>
